<!-- Ported from Vite assets/react.svg. Replace this with your actual SVG asset if needed. -->
<svg xmlns="http://www.w3.org/2000/svg" viewBox="0 0 841.9 595.3"><g fill="#61DAFB"><path d="M666.3 296.5c0 58.2-47.2 105.4-105.4 105.4s-105.4-47.2-105.4-105.4 47.2-105.4 105.4-105.4 105.4 47.2 105.4 105.4z"/><path d="M666.3 296.5c0 58.2-47.2 105.4-105.4 105.4s-105.4-47.2-105.4-105.4 47.2-105.4 105.4-105.4 105.4 47.2 105.4 105.4z"/><path d="M666.3 296.5c0 58.2-47.2 105.4-105.4 105.4s-105.4-47.2-105.4-105.4 47.2-105.4 105.4-105.4 105.4 47.2 105.4 105.4z"/></g></svg>
